<svg width="1325" height="191" viewBox="0 0 1325 191" fill="none" xmlns="http://www.w3.org/2000/svg">
<path d="M0.613637 150V4.54545H18.2273V76.7045H19.9318L85.2727 4.54545H108.284L47.2045 70.1705L108.284 150H86.9773L36.4091 82.3864L18.2273 102.841V150H0.613637ZM145.571 4.54545V150H128.81V4.54545H145.571ZM176.271 150V40.9091H193.032V150H176.271ZM184.793 22.7273C181.526 22.7273 178.709 21.6146 176.342 19.3892C174.022 17.1638 172.862 14.4886 172.862 11.3636C172.862 8.23864 174.022 5.56345 176.342 3.33806C178.709 1.11269 181.526 0 184.793 0C188.06 0 190.854 1.11269 193.174 3.33806C195.541 5.56345 196.725 8.23864 196.725 11.3636C196.725 14.4886 195.541 17.1638 193.174 19.3892C190.854 21.6146 188.06 22.7273 184.793 22.7273ZM240.493 84.375V150H223.732V40.9091H239.925V57.9545H241.345C243.902 52.4148 247.785 47.964 252.993 44.6023C258.201 41.1932 264.925 39.4886 273.163 39.4886C280.55 39.4886 287.013 41.0038 292.553 44.0341C298.092 47.017 302.401 51.5625 305.479 57.6705C308.556 63.7311 310.095 71.4015 310.095 80.6818V150H293.334V81.8182C293.334 73.2481 291.108 66.572 286.658 61.7898C282.207 56.9602 276.099 54.5455 268.334 54.5455C262.983 54.5455 258.201 55.7055 253.987 58.0256C249.821 60.3456 246.53 63.7311 244.115 68.1818C241.7 72.6326 240.493 78.0303 240.493 84.375ZM340.724 150V40.9091H357.485V150H340.724ZM349.246 22.7273C345.979 22.7273 343.162 21.6146 340.795 19.3892C338.475 17.1638 337.315 14.4886 337.315 11.3636C337.315 8.23864 338.475 5.56345 340.795 3.33806C343.162 1.11269 345.979 0 349.246 0C352.513 0 355.307 1.11269 357.627 3.33806C359.995 5.56345 361.178 8.23864 361.178 11.3636C361.178 14.4886 359.995 17.1638 357.627 19.3892C355.307 21.6146 352.513 22.7273 349.246 22.7273ZM403.81 110.227L403.526 89.4886H406.935L454.662 40.9091H475.401L424.548 92.3295H423.128L403.81 110.227ZM388.185 150V4.54545H404.946V150H388.185ZM457.503 150L414.889 96.0227L426.821 84.375L478.81 150H457.503ZM565.724 105.398V40.9091H582.485V150H565.724V131.534H564.587C562.031 137.074 558.053 141.785 552.656 145.668C547.258 149.503 540.44 151.42 532.201 151.42C525.383 151.42 519.322 149.929 514.019 146.946C508.716 143.916 504.549 139.37 501.519 133.31C498.489 127.202 496.974 119.508 496.974 110.227V40.9091H513.735V109.091C513.735 117.045 515.96 123.39 520.411 128.125C524.909 132.86 530.638 135.227 537.599 135.227C541.765 135.227 546.003 134.162 550.312 132.031C554.668 129.901 558.314 126.634 561.249 122.23C564.232 117.827 565.724 112.216 565.724 105.398ZM695.003 40.9091C694.151 33.7121 690.694 28.125 684.634 24.1477C678.573 20.1705 671.139 18.1818 662.332 18.1818C655.893 18.1818 650.259 19.2235 645.429 21.3068C640.647 23.3901 636.906 26.2547 634.207 29.9006C631.556 33.5464 630.23 37.6894 630.23 42.3295C630.23 46.2121 631.153 49.5502 633 52.3438C634.894 55.09 637.309 57.3864 640.244 59.233C643.18 61.0322 646.258 62.5237 649.477 63.7074C652.697 64.8437 655.656 65.767 658.355 66.4773L673.128 70.4545C676.916 71.4489 681.13 72.822 685.77 74.5739C690.457 76.3258 694.932 78.7169 699.193 81.7472C703.502 84.7301 707.053 88.5653 709.847 93.2528C712.64 97.9403 714.037 103.693 714.037 110.511C714.037 118.371 711.977 125.473 707.858 131.818C703.786 138.163 697.82 143.205 689.96 146.946C682.148 150.687 672.654 152.557 661.48 152.557C651.063 152.557 642.044 150.876 634.42 147.514C626.845 144.152 620.879 139.465 616.523 133.452C612.214 127.438 609.776 120.455 609.207 112.5H627.389C627.863 117.992 629.709 122.538 632.929 126.136C636.196 129.687 640.315 132.339 645.287 134.091C650.306 135.795 655.704 136.648 661.48 136.648C668.204 136.648 674.241 135.559 679.591 133.381C684.941 131.155 689.179 128.078 692.304 124.148C695.429 120.17 696.991 115.53 696.991 110.227C696.991 105.398 695.642 101.468 692.943 98.4375C690.244 95.4072 686.693 92.9451 682.29 91.0511C677.886 89.1572 673.128 87.5 668.014 86.0795L650.116 80.9659C638.753 77.6989 629.757 73.035 623.128 66.9744C616.499 60.9138 613.185 52.983 613.185 43.1818C613.185 35.0379 615.386 27.9356 619.79 21.875C624.241 15.767 630.206 11.0322 637.688 7.67045C645.216 4.26136 653.62 2.55681 662.901 2.55681C672.276 2.55681 680.609 4.23768 687.901 7.59943C695.192 10.9138 700.969 15.4593 705.23 21.2358C709.539 27.0123 711.812 33.5701 712.048 40.9091H695.003ZM757.485 84.375V150H740.724V4.54545H757.485V57.9545H758.906C761.462 52.3201 765.298 47.8456 770.411 44.5312C775.572 41.1695 782.438 39.4886 791.008 39.4886C798.442 39.4886 804.952 40.9801 810.539 43.9631C816.126 46.8987 820.459 51.4205 823.536 57.5284C826.661 63.589 828.224 71.3068 828.224 80.6818V150H811.462V81.8182C811.462 73.1534 809.213 66.4536 804.715 61.7188C800.264 56.9366 794.085 54.5455 786.178 54.5455C780.686 54.5455 775.762 55.7055 771.406 58.0256C767.097 60.3456 763.688 63.7311 761.178 68.1818C758.716 72.6326 757.485 78.0303 757.485 84.375ZM903.206 152.273C893.357 152.273 884.716 149.929 877.283 145.241C869.896 140.554 864.12 133.996 859.953 125.568C855.834 117.14 853.774 107.292 853.774 96.0227C853.774 84.6591 855.834 74.7396 859.953 66.2642C864.12 57.7888 869.896 51.2074 877.283 46.5199C884.716 41.8324 893.357 39.4886 903.206 39.4886C913.054 39.4886 921.672 41.8324 929.058 46.5199C936.492 51.2074 942.268 57.7888 946.388 66.2642C950.554 74.7396 952.638 84.6591 952.638 96.0227C952.638 107.292 950.554 117.14 946.388 125.568C942.268 133.996 936.492 140.554 929.058 145.241C921.672 149.929 913.054 152.273 903.206 152.273ZM903.206 137.216C910.687 137.216 916.842 135.298 921.672 131.463C926.501 127.628 930.076 122.585 932.396 116.335C934.716 110.085 935.876 103.314 935.876 96.0227C935.876 88.7311 934.716 81.9366 932.396 75.6392C930.076 69.3419 926.501 64.2519 921.672 60.3693C916.842 56.4867 910.687 54.5455 903.206 54.5455C895.725 54.5455 889.57 56.4867 884.74 60.3693C879.911 64.2519 876.336 69.3419 874.016 75.6392C871.696 81.9366 870.536 88.7311 870.536 96.0227C870.536 103.314 871.696 110.085 874.016 116.335C876.336 122.585 879.911 127.628 884.74 131.463C889.57 135.298 895.725 137.216 903.206 137.216ZM978.224 190.909V40.9091H994.417V58.2386H996.406C997.637 56.3447 999.341 53.9299 1001.52 50.9943C1003.74 48.0114 1006.92 45.3598 1011.04 43.0398C1015.2 40.6723 1020.84 39.4886 1027.94 39.4886C1037.13 39.4886 1045.22 41.785 1052.23 46.3778C1059.24 50.9706 1064.71 57.4811 1068.64 65.9091C1072.57 74.3371 1074.53 84.2803 1074.53 95.7386C1074.53 107.292 1072.57 117.306 1068.64 125.781C1064.71 134.209 1059.26 140.743 1052.3 145.384C1045.34 149.976 1037.31 152.273 1028.22 152.273C1021.22 152.273 1015.61 151.113 1011.39 148.793C1007.18 146.425 1003.93 143.75 1001.66 140.767C999.388 137.737 997.637 135.227 996.406 133.239H994.985V190.909H978.224ZM994.701 95.4545C994.701 103.693 995.908 110.961 998.323 117.259C1000.74 123.509 1004.27 128.409 1008.91 131.96C1013.55 135.464 1019.23 137.216 1025.95 137.216C1032.96 137.216 1038.81 135.369 1043.49 131.676C1048.23 127.936 1051.78 122.917 1054.15 116.619C1056.56 110.275 1057.77 103.22 1057.77 95.4545C1057.77 87.7841 1056.59 80.8712 1054.22 74.7159C1051.9 68.5133 1048.37 63.6127 1043.64 60.0142C1038.95 56.3684 1033.05 54.5455 1025.95 54.5455C1019.13 54.5455 1013.4 56.2737 1008.76 59.7301C1004.12 63.1392 1000.62 67.9214 998.252 74.0767C995.885 80.1847 994.701 87.3106 994.701 95.4545ZM1096.41 120.17V105.682L1160.33 4.54545H1170.84V26.9886H1163.74L1115.44 103.409V104.545H1201.52V120.17H1096.41ZM1164.87 150V115.767V109.02V4.54545H1181.63V150H1164.87ZM1274.73 151.989C1264.97 151.989 1256.35 150.26 1248.87 146.804C1241.44 143.3 1235.64 138.494 1231.47 132.386C1227.31 126.231 1225.25 119.223 1225.29 111.364C1225.25 105.208 1226.45 99.5265 1228.92 94.3182C1231.38 89.0625 1234.74 84.6828 1239 81.179C1243.31 77.6278 1248.12 75.3788 1253.42 74.4318V73.5795C1246.46 71.7803 1240.92 67.8741 1236.8 61.8608C1232.68 55.8002 1230.64 48.911 1230.69 41.1932C1230.64 33.8068 1232.51 27.2017 1236.3 21.3778C1240.09 15.554 1245.3 10.9612 1251.93 7.59943C1258.6 4.23768 1266.2 2.55681 1274.73 2.55681C1283.15 2.55681 1290.68 4.23768 1297.31 7.59943C1303.94 10.9612 1309.15 15.554 1312.94 21.3778C1316.77 27.2017 1318.71 33.8068 1318.76 41.1932C1318.71 48.911 1316.61 55.8002 1312.44 61.8608C1308.32 67.8741 1302.85 71.7803 1296.03 73.5795V74.4318C1301.29 75.3788 1306.02 77.6278 1310.24 81.179C1314.45 84.6828 1317.81 89.0625 1320.32 94.3182C1322.83 99.5265 1324.11 105.208 1324.16 111.364C1324.11 119.223 1321.98 126.231 1317.77 132.386C1313.6 138.494 1307.8 143.3 1300.37 146.804C1292.98 150.26 1284.43 151.989 1274.73 151.989ZM1274.73 136.364C1281.31 136.364 1286.99 135.298 1291.77 133.168C1296.55 131.037 1300.25 128.03 1302.85 124.148C1305.46 120.265 1306.78 115.72 1306.83 110.511C1306.78 105.019 1305.36 100.166 1302.57 95.9517C1299.77 91.7377 1295.96 88.4233 1291.13 86.0085C1286.35 83.5937 1280.88 82.3864 1274.73 82.3864C1268.52 82.3864 1262.98 83.5937 1258.11 86.0085C1253.28 88.4233 1249.47 91.7377 1246.67 95.9517C1243.93 100.166 1242.58 105.019 1242.62 110.511C1242.58 115.72 1243.83 120.265 1246.39 124.148C1248.99 128.03 1252.71 131.037 1257.54 133.168C1262.37 135.298 1268.1 136.364 1274.73 136.364ZM1274.73 67.3295C1279.93 67.3295 1284.55 66.2879 1288.58 64.2045C1292.65 62.1212 1295.84 59.2093 1298.16 55.4688C1300.48 51.7282 1301.67 47.3485 1301.71 42.3295C1301.67 37.4053 1300.51 33.1203 1298.23 29.4744C1295.96 25.7812 1292.81 22.9403 1288.79 20.9517C1284.76 18.9157 1280.08 17.8977 1274.73 17.8977C1269.28 17.8977 1264.52 18.9157 1260.45 20.9517C1256.38 22.9403 1253.23 25.7812 1251 29.4744C1248.78 33.1203 1247.69 37.4053 1247.74 42.3295C1247.69 47.3485 1248.8 51.7282 1251.08 55.4688C1253.4 59.2093 1256.59 62.1212 1260.66 64.2045C1264.74 66.2879 1269.42 67.3295 1274.73 67.3295Z" fill="#100000"/>
</svg>
